<?xml version="1.0" encoding="UTF-8"?>
<svg version="1.1" xmlns="http://www.w3.org/2000/svg" width="250" height="159">
<path d="M0 0 C5.28 0 10.56 0 16 0 C16.66 1.65 17.32 3.3 18 5 C18.66 5.66 19.32 6.32 20 7 C20.33 7 20.66 7 21 7 C21 14.92 21 22.84 21 31 C29.25 31 37.5 31 46 31 C46.495 31.99 46.495 31.99 47 33 C47.78375 33.45375 48.5675 33.9075 49.375 34.375 C52.11741056 36.07268273 53.46801314 37.17791894 55 40 C55.58197435 43.90754204 55.36944223 45.45815139 53.125 48.75 C51.76944977 50.18528848 50.3959888 51.6040112 49 53 C49 53.33 49 53.66 49 54 C39.76 54 30.52 54 21 54 C21.00785522 57.17290649 21.00785522 57.17290649 21.01586914 60.40991211 C21.0324064 67.3828656 21.04347177 74.35581993 21.05181217 81.3287878 C21.05704056 85.55831371 21.0641374 89.7878196 21.07543945 94.01733398 C21.08626991 98.09568543 21.09227717 102.17401757 21.09487724 106.25238228 C21.09673121 107.81177639 21.10035127 109.3711694 21.10573006 110.93055534 C21.11294262 113.10729162 21.11399085 115.28394714 21.11352539 117.46069336 C21.115746 118.70201523 21.11796661 119.9433371 21.12025452 121.22227478 C21 124 21 124 20 125 C21.20728609 128.51202512 21.20728609 128.51202512 23 132 C24.8522367 133.00478037 24.8522367 133.00478037 27 133 C27.9075 133.185625 28.815 133.37125 29.75 133.5625 C30.4925 133.706875 31.235 133.85125 32 134 C32 134.33 32 134.66 32 135 C34.31 135 36.62 135 39 135 C39.33 134.34 39.66 133.68 40 133 C40.804375 132.87625 41.60875 132.7525 42.4375 132.625 C43.283125 132.41875 44.12875 132.2125 45 132 C46.09166275 130.06669397 46.09166275 130.06669397 47 128 C47.9590625 127.5978125 47.9590625 127.5978125 48.9375 127.1875 C51.54336249 125.68715493 52.53649679 123.9365925 53.61132812 121.16113281 C54.08999067 118.49962474 53.68703372 116.61890718 53.09375 113.984375 C49.10322479 93.83606936 52.25264192 75.87515512 62 58 C62.495 57.01 62.495 57.01 63 56 C64.09987522 55.01293249 65.22905931 54.05819221 66.375 53.125 C69.61639645 50.40169561 72.09321414 47.81357173 74 44 C74.99 43.67 75.98 43.34 77 43 C77.4125 42.525625 77.825 42.05125 78.25 41.5625 C80.829945 39.25897767 83.69277566 38.81120597 87 38 C87 37.34 87 36.68 87 36 C88.216875 35.87625 89.43375 35.7525 90.6875 35.625 C93.44430502 35.33390879 96.13553426 34.97407815 98.859375 34.453125 C112.24434616 31.93919641 125.72264238 33.32361925 139 36 C139.845625 36.13792969 140.69125 36.27585938 141.5625 36.41796875 C144.14373015 37.03432018 145.94335006 37.91044888 148.1875 39.3125 C148.86167969 39.72113281 149.53585938 40.12976562 150.23046875 40.55078125 C153.27439655 43.04371108 153.921999 45.66999579 154.8125 49.4375 C155.02712501 53.51537515 154.3579928 54.76867654 152 58 C151.31697186 59.32502633 150.64737404 60.65719358 150 62 C142.67929731 61.73085652 137.29632632 60.84775498 131 57 C130.67 56.34 130.34 55.68 130 55 C121.25053187 52.1365377 111.64471509 51.82439037 103 55 C102.01 55.66 101.02 56.32 100 57 C97.67612053 57.39387788 95.34206251 57.73486085 93 58 C92.67 58.99 92.34 59.98 92 61 C90.66800526 61.33864273 89.33446322 61.67121921 88 62 C79.89301557 68.96916206 76.18035665 78.59537476 75 89 C74.07778875 102.62283991 75.91646558 115.65538201 84 127 C86.38852792 129.07657593 87.96874771 129.98958257 91 131 C91.33 131.99 91.66 132.98 92 134 C92.928125 134.12375 93.85625 134.2475 94.8125 134.375 C98 135 98 135 101 137 C104.00111041 138.75219152 106.15701381 139.25574067 109.625 139.265625 C110.49640625 139.26820313 111.3678125 139.27078125 112.265625 139.2734375 C113.16796875 139.26570312 114.0703125 139.25796875 115 139.25 C115.90234375 139.25773438 116.8046875 139.26546875 117.734375 139.2734375 C119.04148438 139.26957031 119.04148438 139.26957031 120.375 139.265625 C121.56222656 139.26224121 121.56222656 139.26224121 122.7734375 139.25878906 C126.48866874 138.8269749 128.91912626 137.05391583 132 135 C133.3231398 134.29308055 134.6572141 133.6063498 136 132.9375 C136.680625 132.59589844 137.36125 132.25429687 138.0625 131.90234375 C140 131 140 131 143 130 C143.33 129.34 143.66 128.68 144 128 C144.62132812 127.85046875 145.24265625 127.7009375 145.8828125 127.546875 C149.79962137 126.53515315 151.82635664 123.19304434 154 120 C160.66256282 108.39533362 163.31215102 95.45503988 166.24609375 82.53515625 C169.5521786 68.03785821 173.50637678 55.84669331 182.6171875 43.875 C184.04754982 42.04736822 184.04754982 42.04736822 185 40 C185.66 39.855625 186.32 39.71125 187 39.5625 C187.66 39.376875 188.32 39.19125 189 39 C189.33 38.01 189.66 37.02 190 36 C204.01604367 32.60317059 216.90407033 32.80127593 231 35 C232.27359375 35.14050781 233.5471875 35.28101563 234.859375 35.42578125 C238 36 238 36 239.75 38.3125 C240.1625 39.199375 240.575 40.08625 241 41 C241.556875 41.639375 242.11375 42.27875 242.6875 42.9375 C244.51665343 45.81188395 244.41042483 47.64819721 244 51 C242.75 53.8125 242.75 53.8125 241 56 C237.81385916 57.21114641 235.47429957 56.90697266 232.1875 56.1875 C230.85912109 55.90326172 230.85912109 55.90326172 229.50390625 55.61328125 C227 55 227 55 223.625 53.875 C218.41729899 52.61796872 213.33099733 52.84243358 208 53 C208 53.66 208 54.32 208 55 C206.824375 55.1546875 206.824375 55.1546875 205.625 55.3125 C202.66954819 55.77595022 202.66954819 55.77595022 201 59 C200.46634658 65.36835603 200.46634658 65.36835603 203 71 C203.59554687 71.29390625 204.19109375 71.5878125 204.8046875 71.890625 C207.26975745 73.13631871 209.22320217 74.64601157 211.375 76.375 C214.02251503 78.47641044 216.65301973 80.49015756 219.5 82.3125 C222 84 222 84 223 86 C223.99 86.33 224.98 86.66 226 87 C226.33 87.66 226.66 88.32 227 89 C227.99 89.33 228.98 89.66 230 90 C230.69520323 91.31867915 231.35909286 92.654095 232 94 C233.51436608 95.60684203 233.51436608 95.60684203 235.25 97.125 C242.38711734 104.0386168 247.18288463 112.72372263 247.43066406 122.6887207 C247.45417216 131.28176918 247.11385738 137.75052604 242 145 C241.608125 145.61230469 241.21625 146.22460938 240.8125 146.85546875 C239.90646882 148.25781848 238.95743781 149.6322317 238 151 C237.67 151.66 237.34 152.32 237 153 C236.01 153.33 235.02 153.66 234 154 C233.608125 154.495 233.21625 154.99 232.8125 155.5 C230.4177222 157.48188508 228.16471214 157.53937665 225.1328125 157.7890625 C222.97788498 157.95526188 222.97788498 157.95526188 220.828125 158.5078125 C208.24666637 160.69740337 195.26802139 159.01621418 183 156 C181.60974609 155.74283203 181.60974609 155.74283203 180.19140625 155.48046875 C176.60700019 154.69458293 175.44544681 152.59392908 173.3125 149.75 C171.64183842 146.24956622 171.65678421 143.8440168 172 140 C172.63028587 138.31923769 173.29118949 136.64918461 174 135 C176.77109307 134.94607603 179.54113818 134.90636545 182.3125 134.875 C183.09818359 134.85824219 183.88386719 134.84148437 184.69335938 134.82421875 C185.45068359 134.81777344 186.20800781 134.81132812 186.98828125 134.8046875 C187.68477783 134.79421387 188.38127441 134.78374023 189.09887695 134.77294922 C191.78321862 135.09353966 193.47167452 136.64696008 195.671875 138.1171875 C199.14678212 139.43485362 202.5907361 139.2090467 206.25 139.125 C206.99507812 139.11597656 207.74015625 139.10695312 208.5078125 139.09765625 C210.33868059 139.07418358 212.16938238 139.03831525 214 139 C214 138.34 214 137.68 214 137 C215.11375 136.525625 216.2275 136.05125 217.375 135.5625 C219.26710994 134.74693537 221.15712709 133.92143645 223 133 C224.95855737 127.12432789 224.88044771 121.12229923 222.1875 115.5 C220.3823241 112.12480522 218.42567608 110.51482747 214.75 109.1875 C210.71777249 107.44631085 206.01879789 105.03759577 204 101 C202.7934375 100.5359375 202.7934375 100.5359375 201.5625 100.0625 C199 99 199 99 197 96 C196.01 95.67 195.02 95.34 194 95 C193.67 94.34 193.34 93.68 193 93 C192.360625 92.731875 191.72125 92.46375 191.0625 92.1875 C188.31049599 90.60301284 187.9811957 88.94358709 187 86 C186.67 85.67 186.34 85.34 186 85 C185.84442627 85.66418945 185.68885254 86.32837891 185.52856445 87.01269531 C181.81351498 102.73451202 178.05762688 116.44488745 169.55078125 130.30859375 C167.93979126 132.94979235 167.93979126 132.94979235 166.91015625 135.78515625 C165.74882994 138.61121641 164.6982004 138.73025863 162 140 C159.76735202 142.56097856 157.88489989 145.17265016 156 148 C155.01 148.33 154.02 148.66 153 149 C152.54625 149.45375 152.0925 149.9075 151.625 150.375 C148.56620781 153.43379219 145.21394246 155.15721151 141 156 C140.01 156.33 139.02 156.66 138 157 C122.64909865 159.79292628 107.33414184 160.04019889 92 157 C91.1646875 156.86207031 90.329375 156.72414062 89.46875 156.58203125 C86.67965115 155.92447472 84.37462328 154.90412358 81.8125 153.625 C80.52279297 152.99464844 80.52279297 152.99464844 79.20703125 152.3515625 C77 151 77 151 75 148 C74.01 147.67 73.02 147.34 72 147 C71.690625 146.360625 71.38125 145.72125 71.0625 145.0625 C69.75374293 142.52197156 68.54533936 142.14668824 66 141 C64.68227638 142.59987856 63.37098863 144.20505966 62.0625 145.8125 C61.33160156 146.70582031 60.60070313 147.59914062 59.84765625 148.51953125 C57.84817309 150.93362919 57.84817309 150.93362919 57 154 C56.01 154.33 55.02 154.66 54 155 C53.608125 155.495 53.21625 155.99 52.8125 156.5 C48.21379608 160.30582394 39.25290286 159.15270258 33.5 159.125 C32.69691406 159.12886719 31.89382812 159.13273438 31.06640625 159.13671875 C16.49473385 159.11310178 16.49473385 159.11310178 11.625 155.1875 C10.97789063 154.68605469 10.33078125 154.18460938 9.6640625 153.66796875 C7.85417936 151.85383706 7.04502257 150.32890744 6 148 C5.30583984 146.76830078 5.30583984 146.76830078 4.59765625 145.51171875 C-4.2102719 129.30782039 -3.44896557 112.5185314 -3.3984375 94.5546875 C-3.40046168 92.00977495 -3.40337598 89.46486297 -3.40713501 86.91995239 C-3.41153409 81.6164945 -3.40549207 76.31319423 -3.39111328 71.00976562 C-3.37470926 64.88884909 -3.38014597 58.76823121 -3.3965925 52.64732158 C-3.41185428 46.72860221 -3.41023299 40.8099754 -3.4014473 34.89123917 C-3.3994473 32.38339318 -3.40189752 29.87553953 -3.40888596 27.36770248 C-3.41649473 23.87367123 -3.40490745 20.38021854 -3.38818359 16.88623047 C-3.39425629 15.85243759 -3.40032898 14.81864471 -3.40658569 13.75352478 C-3.36129094 8.65179823 -3.27548164 5.17744647 0 1 C0 0.67 0 0.34 0 0 Z " fill="#E53156" transform="translate(3,0)"/>
<path d="M0 0 C1.17864624 0.07057617 1.17864624 0.07057617 2.38110352 0.14257812 C9.16870015 0.59662609 15.65634258 1.53128086 22.125 3.6875 C23.125 5.5 23.125 5.5 24.125 7.6875 C24.929375 8.615625 24.929375 8.615625 25.75 9.5625 C27.63419561 12.47443866 27.54299468 14.27387679 27.125 17.6875 C25.875 20.5 25.875 20.5 24.125 22.6875 C20.93885916 23.89864641 18.59929957 23.59447266 15.3125 22.875 C13.98412109 22.59076172 13.98412109 22.59076172 12.62890625 22.30078125 C10.125 21.6875 10.125 21.6875 6.75 20.5625 C1.54229899 19.30546872 -3.54400267 19.52993358 -8.875 19.6875 C-8.875 20.3475 -8.875 21.0075 -8.875 21.6875 C-9.65875 21.790625 -10.4425 21.89375 -11.25 22 C-14.20545181 22.46345022 -14.20545181 22.46345022 -15.875 25.6875 C-16.40865342 32.05585603 -16.40865342 32.05585603 -13.875 37.6875 C-12.98167969 38.12835938 -12.98167969 38.12835938 -12.0703125 38.578125 C-9.60524255 39.82381871 -7.65179783 41.33351157 -5.5 43.0625 C-2.85248497 45.16391044 -0.22198027 47.17765756 2.625 49 C5.125 50.6875 5.125 50.6875 6.125 52.6875 C7.115 53.0175 8.105 53.3475 9.125 53.6875 C9.455 54.3475 9.785 55.0075 10.125 55.6875 C11.115 56.0175 12.105 56.3475 13.125 56.6875 C13.82020323 58.00617915 14.48409286 59.341595 15.125 60.6875 C16.63936608 62.29434203 16.63936608 62.29434203 18.375 63.8125 C25.51211734 70.7261168 30.30788463 79.41122263 30.55566406 89.3762207 C30.57917216 97.96926918 30.23885738 104.43802604 25.125 111.6875 C24.733125 112.29980469 24.34125 112.91210938 23.9375 113.54296875 C23.03146882 114.94531848 22.08243781 116.3197317 21.125 117.6875 C20.795 118.3475 20.465 119.0075 20.125 119.6875 C19.135 120.0175 18.145 120.3475 17.125 120.6875 C16.733125 121.1825 16.34125 121.6775 15.9375 122.1875 C13.5427222 124.16938508 11.28971214 124.22687665 8.2578125 124.4765625 C6.10288498 124.64276188 6.10288498 124.64276188 3.953125 125.1953125 C-8.62833363 127.38490337 -21.60697861 125.70371418 -33.875 122.6875 C-34.80183594 122.51605469 -35.72867188 122.34460938 -36.68359375 122.16796875 C-40.26799981 121.38208293 -41.42955319 119.28142908 -43.5625 116.4375 C-45.23316158 112.93706622 -45.21821579 110.5315168 -44.875 106.6875 C-44.24471413 105.00673769 -43.58381051 103.33668461 -42.875 101.6875 C-40.10390693 101.63357603 -37.33386182 101.59386545 -34.5625 101.5625 C-33.77681641 101.54574219 -32.99113281 101.52898437 -32.18164062 101.51171875 C-31.42431641 101.50527344 -30.66699219 101.49882812 -29.88671875 101.4921875 C-29.19022217 101.48171387 -28.49372559 101.47124023 -27.77612305 101.46044922 C-25.09178138 101.78103966 -23.40332548 103.33446008 -21.203125 104.8046875 C-17.72821788 106.12235362 -14.2842639 105.8965467 -10.625 105.8125 C-9.87992187 105.80347656 -9.13484375 105.79445313 -8.3671875 105.78515625 C-6.53631941 105.76168358 -4.70561762 105.72581525 -2.875 105.6875 C-2.875 105.0275 -2.875 104.3675 -2.875 103.6875 C-1.76125 103.213125 -0.6475 102.73875 0.5 102.25 C2.39210994 101.43443537 4.28212709 100.60893645 6.125 99.6875 C8.08355737 93.81182789 8.00544771 87.80979923 5.3125 82.1875 C3.5073241 78.81230522 1.55067608 77.20232747 -2.125 75.875 C-6.15722751 74.13381085 -10.85620211 71.72509577 -12.875 67.6875 C-13.679375 67.378125 -14.48375 67.06875 -15.3125 66.75 C-17.875 65.6875 -17.875 65.6875 -19.875 62.6875 C-21.36 62.1925 -21.36 62.1925 -22.875 61.6875 C-23.205 61.0275 -23.535 60.3675 -23.875 59.6875 C-24.514375 59.419375 -25.15375 59.15125 -25.8125 58.875 C-28.56450401 57.29051284 -28.8938043 55.63108709 -29.875 52.6875 C-30.205 52.3575 -30.535 52.0275 -30.875 51.6875 C-31.03057373 52.35168945 -31.18614746 53.01587891 -31.34643555 53.70019531 C-35.06148502 69.42201202 -38.81737312 83.13238745 -47.32421875 96.99609375 C-48.93520874 99.63729235 -48.93520874 99.63729235 -49.96484375 102.47265625 C-51.12617006 105.29871641 -52.1767996 105.41775863 -54.875 106.6875 C-57.10764798 109.24847856 -58.99010011 111.86015016 -60.875 114.6875 C-62.36 115.1825 -62.36 115.1825 -63.875 115.6875 C-64.32875 116.14125 -64.7825 116.595 -65.25 117.0625 C-68.30879219 120.12129219 -71.66105754 121.84471151 -75.875 122.6875 C-76.865 123.0175 -77.855 123.3475 -78.875 123.6875 C-80.76928711 123.42138672 -80.76928711 123.42138672 -82.90234375 122.8671875 C-83.68875244 122.66424072 -84.47516113 122.46129395 -85.28540039 122.25219727 C-86.5363147 121.91079712 -86.5363147 121.91079712 -87.8125 121.5625 C-89.0953186 121.21626587 -89.0953186 121.21626587 -90.40405273 120.86303711 C-104.18330375 117.03770594 -116.26094284 111.37859567 -126.875 101.6875 C-126.38 100.6975 -126.38 100.6975 -125.875 99.6875 C-122.08196275 100.68943437 -119.15963659 101.49774227 -115.875 103.6875 C-112.87388959 105.43969152 -110.71798619 105.94324067 -107.25 105.953125 C-106.37859375 105.95570313 -105.5071875 105.95828125 -104.609375 105.9609375 C-103.70703125 105.95320313 -102.8046875 105.94546875 -101.875 105.9375 C-100.97265625 105.94523437 -100.0703125 105.95296875 -99.140625 105.9609375 C-97.83351563 105.95707031 -97.83351563 105.95707031 -96.5 105.953125 C-95.70851563 105.95086914 -94.91703125 105.94861328 -94.1015625 105.94628906 C-90.38633126 105.5144749 -87.95587374 103.74141583 -84.875 101.6875 C-83.5518602 100.98058055 -82.2177859 100.2938498 -80.875 99.625 C-80.194375 99.28339844 -79.51375 98.94179687 -78.8125 98.58984375 C-76.875 97.6875 -76.875 97.6875 -73.875 96.6875 C-73.545 96.0275 -73.215 95.3675 -72.875 94.6875 C-72.25367188 94.53796875 -71.63234375 94.3884375 -70.9921875 94.234375 C-67.07537863 93.22265315 -65.04864336 89.88054434 -62.875 86.6875 C-56.21243718 75.08283362 -53.56284898 62.14253988 -50.62890625 49.22265625 C-47.3228214 34.72535821 -43.36862322 22.53419331 -34.2578125 10.5625 C-32.82745018 8.73486822 -32.82745018 8.73486822 -31.875 6.6875 C-31.215 6.543125 -30.555 6.39875 -29.875 6.25 C-29.215 6.064375 -28.555 5.87875 -27.875 5.6875 C-27.545 4.6975 -27.215 3.7075 -26.875 2.6875 C-25.375823 2.37107535 -23.87559887 2.05961151 -22.375 1.75 C-21.5396875 1.57597656 -20.704375 1.40195312 -19.84375 1.22265625 C-13.06191699 0.00014162 -6.85870412 -0.4411215 0 0 Z " fill="#E53154" transform="translate(219.875,33.3125)"/>
<path d="M0 0 C5.28 0 10.56 0 16 0 C16.66 1.65 17.32 3.3 18 5 C18.66 5.66 19.32 6.32 20 7 C20.33 7 20.66 7 21 7 C21 14.92 21 22.84 21 31 C29.25 31 37.5 31 46 31 C46.495 31.99 46.495 31.99 47 33 C47.78375 33.45375 48.5675 33.9075 49.375 34.375 C52.11741056 36.07268273 53.46801314 37.17791894 55 40 C55.58197435 43.90754204 55.36944223 45.45815139 53.125 48.75 C51.76944977 50.18528848 50.3959888 51.6040112 49 53 C49 53.33 49 53.66 49 54 C39.76 54 30.52 54 21 54 C21 77.1 21 100.2 21 124 C20.67 124 20.34 124 20 124 C19.47130733 132.45908273 22.33173039 138.40568925 27.01171875 145.3359375 C28 147 28 147 28 149 C28.58007812 149.28746094 29.16015625 149.57492188 29.7578125 149.87109375 C31.15705346 150.57558964 32.54918953 151.29460572 33.9296875 152.03515625 C37.96281299 154.16510003 41.39106378 155.53910638 46 156 C46 156.66 46 157.32 46 158 C43.26599615 158.91133462 41.64601579 159.12846082 38.83203125 159.1328125 C38.02056641 159.13410156 37.20910156 159.13539063 36.37304688 159.13671875 C35.52806641 159.13285156 34.68308594 159.12898437 33.8125 159.125 C32.98685547 159.12886719 32.16121094 159.13273438 31.31054688 159.13671875 C16.49506521 159.1133689 16.49506521 159.1133689 11.625 155.1875 C10.97789063 154.68605469 10.33078125 154.18460938 9.6640625 153.66796875 C7.85417936 151.85383706 7.04502257 150.32890744 6 148 C5.30583984 146.76830078 5.30583984 146.76830078 4.59765625 145.51171875 C-4.2102719 129.30782039 -3.44896557 112.5185314 -3.3984375 94.5546875 C-3.40046168 92.00977495 -3.40337598 89.46486297 -3.40713501 86.91995239 C-3.41153409 81.6164945 -3.40549207 76.31319423 -3.39111328 71.00976562 C-3.37470926 64.88884909 -3.38014597 58.76823121 -3.3965925 52.64732158 C-3.41185428 46.72860221 -3.41023299 40.8099754 -3.4014473 34.89123917 C-3.3994473 32.38339318 -3.40189752 29.87553953 -3.40888596 27.36770248 C-3.41649473 23.87367123 -3.40490745 20.38021854 -3.38818359 16.88623047 C-3.39425629 15.85243759 -3.40032898 14.81864471 -3.40658569 13.75352478 C-3.36129094 8.65179823 -3.27548164 5.17744647 0 1 C0 0.67 0 0.34 0 0 Z " fill="#E5334A" transform="translate(3,0)"/>
<path d="M0 0 C0.99 0.495 0.99 0.495 2 1 C1.58427734 1.77923828 1.58427734 1.77923828 1.16015625 2.57421875 C0.79792969 3.27160156 0.43570313 3.96898437 0.0625 4.6875 C-0.29714844 5.37199219 -0.65679687 6.05648437 -1.02734375 6.76171875 C-5.08108858 16.09021589 -4.14832478 29.70464529 -0.75390625 39.1171875 C-0.50511719 39.73851562 -0.25632812 40.35984375 0 41 C1.15913958 44.47741874 0.78910469 45.82028162 -0.0390625 49.33984375 C-0.41115845 50.92599487 -0.41115845 50.92599487 -0.79077148 52.54418945 C-1.06606689 53.66398193 -1.3413623 54.78377441 -1.625 55.9375 C-1.90351807 57.07598389 -2.18203613 58.21446777 -2.46899414 59.38745117 C-5.33481837 70.78611775 -9.27916927 80.2531916 -15.44921875 90.30859375 C-17.06020874 92.94979235 -17.06020874 92.94979235 -18.08984375 95.78515625 C-19.25117006 98.61121641 -20.3017996 98.73025863 -23 100 C-25.23264798 102.56097856 -27.11510011 105.17265016 -29 108 C-30.485 108.495 -30.485 108.495 -32 109 C-32.45375 109.45375 -32.9075 109.9075 -33.375 110.375 C-36.43379219 113.43379219 -39.78605754 115.15721151 -44 116 C-44.99 116.33 -45.98 116.66 -47 117 C-48.89428711 116.73388672 -48.89428711 116.73388672 -51.02734375 116.1796875 C-51.81375244 115.97674072 -52.60016113 115.77379395 -53.41040039 115.56469727 C-54.6613147 115.22329712 -54.6613147 115.22329712 -55.9375 114.875 C-57.2203186 114.52876587 -57.2203186 114.52876587 -58.52905273 114.17553711 C-72.30830375 110.35020594 -84.38594284 104.69109567 -95 95 C-94.505 94.01 -94.505 94.01 -94 93 C-90.20696275 94.00193437 -87.28463659 94.81024227 -84 97 C-80.99888959 98.75219152 -78.84298619 99.25574067 -75.375 99.265625 C-74.50359375 99.26820313 -73.6321875 99.27078125 -72.734375 99.2734375 C-71.83203125 99.26570313 -70.9296875 99.25796875 -70 99.25 C-69.09765625 99.25773437 -68.1953125 99.26546875 -67.265625 99.2734375 C-65.95851563 99.26957031 -65.95851563 99.26957031 -64.625 99.265625 C-63.83351563 99.26336914 -63.04203125 99.26111328 -62.2265625 99.25878906 C-58.51133126 98.8269749 -56.08087374 97.05391583 -53 95 C-51.6768602 94.29308055 -50.3427859 93.6063498 -49 92.9375 C-48.319375 92.59589844 -47.63875 92.25429687 -46.9375 91.90234375 C-45 91 -45 91 -42 90 C-41.67 89.34 -41.34 88.68 -41 88 C-40.37867188 87.85046875 -39.75734375 87.7009375 -39.1171875 87.546875 C-35.20037863 86.53515315 -33.17364336 83.19304434 -31 80 C-24.33743718 68.39533362 -21.68784898 55.45503988 -18.75390625 42.53515625 C-15.4478214 28.03785821 -11.49362322 15.84669331 -2.3828125 3.875 C-0.95245018 2.04736822 -0.95245018 2.04736822 0 0 Z " fill="#973E8D" transform="translate(188,40)"/>
<path d="M0 0 C1.2684375 0.20689453 1.2684375 0.20689453 2.5625 0.41796875 C5.14373015 1.03432018 6.94335006 1.91044888 9.1875 3.3125 C9.86167969 3.72113281 10.53585938 4.12976562 11.23046875 4.55078125 C14.27439655 7.04371108 14.921999 9.66999579 15.8125 13.4375 C16.02712501 17.51537515 15.3579928 18.76867654 13 22 C12.31697186 23.32502633 11.64737404 24.65719358 11 26 C4.06439866 25.74501466 -2.2726475 25.25499066 -8 21 C-8.46535156 20.33097656 -8.93070312 19.66195312 -9.41015625 18.97265625 C-12.6796241 14.91594553 -18.08320595 14.68885033 -23 14 C-40.36027713 12.70919174 -56.46767363 14.53660971 -70.1875 26.125 C-78.21650421 33.73805894 -82.73844674 42.52656499 -86 53 C-86.33 53 -86.66 53 -87 53 C-86.71953066 41.70473463 -82.2065673 31.8552881 -77 22 C-76.67 21.34 -76.34 20.68 -76 20 C-74.90012478 19.01293249 -73.77094069 18.05819221 -72.625 17.125 C-69.38360355 14.40169561 -66.90678586 11.81357173 -65 8 C-64.01 7.67 -63.02 7.34 -62 7 C-61.5875 6.525625 -61.175 6.05125 -60.75 5.5625 C-58.170055 3.25897767 -55.30722434 2.81120597 -52 2 C-52 1.34 -52 0.68 -52 0 C-50.783125 -0.12375 -49.56625 -0.2475 -48.3125 -0.375 C-45.55569498 -0.66609121 -42.86446574 -1.02592185 -40.140625 -1.546875 C-26.75565384 -4.06080359 -13.27735762 -2.67638075 0 0 Z " fill="#F08118" transform="translate(142,36)"/>
<path d="M0 0 C6.02048644 2.54814448 9.46512853 7.96158097 12.33984375 13.65234375 C14.88329635 19.96119237 16.26227879 26.22577049 15 33 C13.60147185 35.73711937 12.02168713 37.63314677 10 40 C9.67 40.99 9.34 41.98 9 43 C7.07942708 43.22786458 5.15885417 43.45572917 3.23828125 43.68359375 C0.99611574 43.96515617 0.99611574 43.96515617 -1.18359375 44.51953125 C-13.77859267 46.66819265 -26.72167145 45.01874829 -39 42 C-39.92683594 41.82855469 -40.85367188 41.65710938 -41.80859375 41.48046875 C-45.39299981 40.69458293 -46.55455319 38.59392908 -48.6875 35.75 C-50.35816158 32.24956622 -50.34321579 29.8440168 -50 26 C-49.36971413 24.31923769 -48.70881051 22.64918461 -48 21 C-45.22890693 20.94607603 -42.45886182 20.90636545 -39.6875 20.875 C-38.90181641 20.85824219 -38.11613281 20.84148437 -37.30664062 20.82421875 C-36.54931641 20.81777344 -35.79199219 20.81132812 -35.01171875 20.8046875 C-33.96697388 20.78897705 -33.96697388 20.78897705 -32.90112305 20.77294922 C-30.21678138 21.09353966 -28.52832548 22.64696008 -26.328125 24.1171875 C-22.85321788 25.43485362 -19.4092639 25.2090467 -15.75 25.125 C-15.00492188 25.11597656 -14.25984375 25.10695312 -13.4921875 25.09765625 C-11.66131941 25.07418358 -9.83061762 25.03831525 -8 25 C-8 24.34 -8 23.68 -8 23 C-6.88625 22.525625 -5.7725 22.05125 -4.625 21.5625 C-2.73289006 20.74693537 -0.84287291 19.92143645 1 19 C3.08708012 12.73875963 2.54971958 6.055584 0 0 Z " fill="#9E3D8B" transform="translate(225,114)"/>
<path d="M0 0 C1.17864624 0.07057617 1.17864624 0.07057617 2.38110352 0.14257812 C9.16870015 0.59662609 15.65634258 1.53128086 22.125 3.6875 C23.125 5.5 23.125 5.5 24.125 7.6875 C24.66125 8.30625 25.1975 8.925 25.75 9.5625 C27.63419561 12.47443866 27.54299468 14.27387679 27.125 17.6875 C25.875 20.5 25.875 20.5 24.125 22.6875 C20.93885916 23.89864641 18.59929957 23.59447266 15.3125 22.875 C14.42691406 22.68550781 13.54132813 22.49601562 12.62890625 22.30078125 C10.125 21.6875 10.125 21.6875 6.75 20.5625 C1.54229899 19.30546872 -3.54400267 19.52993358 -8.875 19.6875 C-8.875 20.3475 -8.875 21.0075 -8.875 21.6875 C-9.65875 21.790625 -10.4425 21.89375 -11.25 22 C-14.20545181 22.46345022 -14.20545181 22.46345022 -15.875 25.6875 C-16.40865342 32.05585603 -16.40865342 32.05585603 -13.875 37.6875 C-12.55032254 38.3712045 -11.21636367 39.03714186 -9.875 39.6875 C-8.125 41.8125 -8.125 41.8125 -6.875 43.6875 C-9.875 44.6875 -9.875 44.6875 -12.6953125 43.31640625 C-32.179647 31.13293941 -32.179647 31.13293941 -34.875 22.6875 C-35.72479389 17.68315818 -34.73990883 15.0864166 -32 11 C-31.46632812 10.27425781 -30.93265625 9.54851563 -30.3828125 8.80078125 C-28.8101929 6.76521172 -28.8101929 6.76521172 -27.96875 4.4921875 C-26.875 2.6875 -26.875 2.6875 -24.7734375 1.89453125 C-23.94070312 1.76433594 -23.10796875 1.63414063 -22.25 1.5 C-21.43273437 1.36207031 -20.61546875 1.22414062 -19.7734375 1.08203125 C-18.81695312 0.95183594 -17.86046875 0.82164063 -16.875 0.6875 C-15.00328125 0.40519531 -15.00328125 0.40519531 -13.09375 0.1171875 C-8.6871632 -0.42208737 -4.42156333 -0.28437539 0 0 Z " fill="#F39214" transform="translate(219.875,33.3125)"/>
<path d="M0 0 C2.72477048 1.36238524 2.75074096 2.66000063 3.75 5.5 C5.53044175 10.25010986 7.884059 13.92939206 11.0234375 17.89453125 C12 20 12 20 11.38671875 22.50390625 C9.963116 25.06639121 8.44099281 26.99184481 6.4375 29.125 C4.1668032 31.55148266 3.06647074 32.80058779 2 36 C1.01 36.33 0.02 36.66 -1 37 C-1.44988281 37.52722656 -1.89976563 38.05445313 -2.36328125 38.59765625 C-4 40 -4 40 -6.41796875 39.99609375 C-17.66664728 37.72731938 -24.46782165 34.16208565 -31.1875 24.625 C-34.86587106 18.92305205 -36.33225089 13.81114319 -36 7 C-34 10 -34 10 -32.875 12.625 C-30.7017888 15.37773419 -30.1447181 15.40699198 -26.8125 15.8125 C-25.554375 15.874375 -24.29625 15.93625 -23 16 C-23 16.33 -23 16.66 -23 17 C-20.69 17 -18.38 17 -16 17 C-15.67 16.34 -15.34 15.68 -15 15 C-14.195625 14.87625 -13.39125 14.7525 -12.5625 14.625 C-11.716875 14.41875 -10.87125 14.2125 -10 14 C-8.90833725 12.06669397 -8.90833725 12.06669397 -8 10 C-7.36707031 9.71253906 -6.73414062 9.42507812 -6.08203125 9.12890625 C-3.50171767 7.7298244 -2.94363359 6.51804581 -1.75 3.875 C-1.41484375 3.15054688 -1.0796875 2.42609375 -0.734375 1.6796875 C-0.49203125 1.12539062 -0.2496875 0.57109375 0 0 Z " fill="#A63C89" transform="translate(58,118)"/>
<path d="M0 0 C5.28 0 10.56 0 16 0 C16.66 1.65 17.32 3.3 18 5 C18.33 5.66 18.66 6.32 19 7 C19.08527628 9.03232634 19.10716135 11.06747006 19.09765625 13.1015625 C19.09443359 14.31328125 19.09121094 15.525 19.08789062 16.7734375 C19.07951172 18.04445313 19.07113281 19.31546875 19.0625 20.625 C19.05798828 21.90375 19.05347656 23.1825 19.04882812 24.5 C19.03701203 27.66671292 19.02053815 30.83333356 19 34 C18.38801758 34.18248291 17.77603516 34.36496582 17.14550781 34.55297852 C15.93652832 34.93087524 15.93652832 34.93087524 14.703125 35.31640625 C13.90551758 35.56076416 13.10791016 35.80512207 12.28613281 36.05688477 C6.01388307 38.64442222 3.62658418 44.51195982 1.125 50.4375 C0.40351503 52.28658885 -0.30943546 54.13914247 -1 56 C-3.46440968 53.53559032 -3.25591117 52.83622486 -3.2746582 49.44604492 C-3.28419022 48.50133835 -3.29372223 47.55663177 -3.30354309 46.58329773 C-3.30263168 45.55936417 -3.30172028 44.5354306 -3.30078125 43.48046875 C-3.30506638 42.42974686 -3.3093515 41.37902496 -3.31376648 40.29646301 C-3.31951804 38.06963828 -3.32000399 35.84279475 -3.31567383 33.6159668 C-3.31252245 30.21174884 -3.33593352 26.80840674 -3.36132812 23.40429688 C-3.36360191 21.2421886 -3.36430425 19.08007798 -3.36328125 16.91796875 C-3.372491 15.90010788 -3.38170074 14.88224701 -3.39118958 13.83354187 C-3.35772531 8.70728657 -3.2965277 5.19543213 0 1 C0 0.67 0 0.34 0 0 Z " fill="#F6A410" transform="translate(3,0)"/>
<path d="M0 0 C6.90767437 0.36823999 12.6381142 1.23918163 19 4 C15.93974817 5.53012591 13.41244074 4.70633868 10.0625 4.25 C8.19271484 4.01023437 8.19271484 4.01023437 6.28515625 3.765625 C3.07721065 3.0179944 1.92478652 2.58532212 0 0 Z " fill="#E63F24" transform="translate(113,49)"/>
<path d="M0 0 C2.45779284 3.27705712 4.72985254 6.5947788 7 10 C7.98866506 11.34175973 8.9838154 12.67896002 10 14 C7.13302508 12.71480435 5.02392288 11.42870746 3 9 C3 8.34 3 7.68 3 7 C2.34 7 1.68 7 1 7 C1 8.98 1 10.96 1 13 C0.67 13 0.34 13 0 13 C0 8.71 0 4.42 0 0 Z " fill="#E53B27" transform="translate(184,54)"/>
<path d="M0 0 C0.66 0 1.32 0 2 0 C1.55005243 1.79379098 1.08975857 3.58498928 0.625 5.375 C0.36976562 6.37273437 0.11453125 7.37046875 -0.1484375 8.3984375 C-1 11 -1 11 -3 13 C-2.88557539 11.39504433 -2.75805306 9.79101881 -2.625 8.1875 C-2.55539063 7.29417969 -2.48578125 6.40085937 -2.4140625 5.48046875 C-2 3 -2 3 0 0 Z " fill="#FCC709" transform="translate(58,76)"/>
<path d="M0 0 C0.33 0 0.66 0 1 0 C1 7.26 1 14.52 1 22 C0.67 22 0.34 22 0 22 C0 14.74 0 7.48 0 0 Z " fill="#EA4D40" transform="translate(53,85)"/>
<path d="M0 0 C6.27 0 12.54 0 19 0 C19 0.33 19 0.66 19 1 C12.73 1 6.46 1 0 1 C0 0.67 0 0.34 0 0 Z " fill="#B83886" transform="translate(109,138)"/>
<path d="M0 0 C5.28 0 10.56 0 16 0 C16 0.33 16 0.66 16 1 C10.72 1 5.44 1 0 1 C0 0.67 0 0.34 0 0 Z " fill="#9F3D8B" transform="translate(201,138)"/>
<path d="M0 0 C0.33 0 0.66 0 1 0 C1 4.62 1 9.24 1 14 C0.67 14 0.34 14 0 14 C0 9.38 0 4.76 0 0 Z " fill="#E6314B" transform="translate(78,89)"/>
<path d="M0 0 C3.63 0 7.26 0 11 0 C11 0.33 11 0.66 11 1 C7.37 1 3.74 1 0 1 C0 0.67 0 0.34 0 0 Z " fill="#F28C15" transform="translate(211,53)"/>
<path d="M0 0 C0.33 0 0.66 0 1 0 C1 2.97 1 5.94 1 9 C0.67 9 0.34 9 0 9 C0 6.03 0 3.06 0 0 Z " fill="#C03784" transform="translate(226,121)"/>
<path d="M0 0 C2.97 0 5.94 0 9 0 C9 0.33 9 0.66 9 1 C6.03 1 3.06 1 0 1 C0 0.67 0 0.34 0 0 Z " fill="#E43324" transform="translate(114,53)"/>
<path d="M0 0 C2.97 0 5.94 0 9 0 C9 0.33 9 0.66 9 1 C6.03 1 3.06 1 0 1 C0 0.67 0 0.34 0 0 Z " fill="#EF7D19" transform="translate(219,32)"/>
<path d="M0 0 C0.33 0 0.66 0 1 0 C1 2.64 1 5.28 1 8 C0.67 8 0.34 8 0 8 C0 5.36 0 2.72 0 0 Z " fill="#F8AA0F" transform="translate(204,59)"/>
<path d="M0 0 C2.64 0 5.28 0 8 0 C8 0.33 8 0.66 8 1 C5.36 1 2.72 1 0 1 C0 0.67 0 0.34 0 0 Z " fill="#EE761A" transform="translate(121,32)"/>
<path d="M0 0 C2.31 0 4.62 0 7 0 C7 0.33 7 0.66 7 1 C4.69 1 2.38 1 0 1 C0 0.67 0 0.34 0 0 Z " fill="#F59F11" transform="translate(204,32)"/>
<path d="M0 0 C2.31 0 4.62 0 7 0 C7 0.33 7 0.66 7 1 C4.69 1 2.38 1 0 1 C0 0.67 0 0.34 0 0 Z " fill="#F28B16" transform="translate(104,32)"/>
<path d="M0 0 C0.33 0 0.66 0 1 0 C1 1.98 1 3.96 1 6 C0.67 6 0.34 6 0 6 C0 4.02 0 2.04 0 0 Z " fill="#794493" transform="translate(173,141)"/>
<path d="M0 0 C0.33 0 0.66 0 1 0 C1 1.98 1 3.96 1 6 C0.67 6 0.34 6 0 6 C0 4.02 0 2.04 0 0 Z " fill="#E74F24" transform="translate(248,45)"/>
<path d="M0 0 C0.33 0 0.66 0 1 0 C1 1.65 1 3.3 1 5 C0.67 5 0.34 5 0 5 C0 3.35 0 1.7 0 0 Z " fill="#E63154" transform="translate(79,104)"/>
<path d="M0 0 C0.33 0 0.66 0 1 0 C1 1.65 1 3.3 1 5 C0.67 5 0.34 5 0 5 C0 3.35 0 1.7 0 0 Z " fill="#E63242" transform="translate(79,83)"/>
<path d="M0 0 C1.65 0 3.3 0 5 0 C5 0.33 5 0.66 5 1 C3.35 1 1.7 1 0 1 C0 0.67 0 0.34 0 0 Z " fill="#E63925" transform="translate(124,54)"/>
<path d="M0 0 C1.65 0 3.3 0 5 0 C5 0.33 5 0.66 5 1 C3.35 1 1.7 1 0 1 C0 0.67 0 0.34 0 0 Z " fill="#E53327" transform="translate(107,54)"/>
<path d="M0 0 C1.65 0 3.3 0 5 0 C5 0.33 5 0.66 5 1 C3.35 1 1.7 1 0 1 C0 0.67 0 0.34 0 0 Z " fill="#EC6C1D" transform="translate(130,33)"/>
<path d="M0 0 C4 1 4 1 4 1 Z " fill="#E7307C" transform="translate(98,158)"/>
<path d="M0 0 C4 1 4 1 4 1 Z " fill="#B23987" transform="translate(128,137)"/>
<path d="M0 0 C4 1 4 1 4 1 Z " fill="#BF3785" transform="translate(104,137)"/>
<path d="M0 0 C4 1 4 1 4 1 Z " fill="#AA3B89" transform="translate(38,134)"/>
<path d="M0 0 C4 1 4 1 4 1 Z " fill="#8B4190" transform="translate(185,133)"/>
<path d="M0 0 C4 1 4 1 4 1 Z " fill="#854291" transform="translate(180,133)"/>
<path d="M0 0 C1 4 1 4 1 4 Z " fill="#E73168" transform="translate(0,128)"/>
<path d="M0 0 C1 4 1 4 1 4 Z " fill="#E53157" transform="translate(80,109)"/>
<path d="M0 0 C1 4 1 4 1 4 Z " fill="#E63156" transform="translate(54,108)"/>
<path d="M0 0 C1 4 1 4 1 4 Z " fill="#844191" transform="translate(185,102)"/>
<path d="M0 0 C1 4 1 4 1 4 Z " fill="#814392" transform="translate(186,98)"/>
<path d="M0 0 C1 4 1 4 1 4 Z " fill="#7F4392" transform="translate(187,94)"/>
<path d="M0 0 C1 4 1 4 1 4 Z " fill="#884291" transform="translate(165,93)"/>
<path d="M0 0 C1 4 1 4 1 4 Z " fill="#7C4493" transform="translate(188,89)"/>
<path d="M0 0 C1 4 1 4 1 4 Z " fill="#854290" transform="translate(166,89)"/>
<path d="M0 0 C1 4 1 4 1 4 Z " fill="#824292" transform="translate(167,84)"/>
<path d="M0 0 C1 4 1 4 1 4 Z " fill="#804392" transform="translate(168,79)"/>
<path d="M0 0 C1 4 1 4 1 4 Z " fill="#FDC707" transform="translate(54,80)"/>
<path d="M0 0 C1 4 1 4 1 4 Z " fill="#E6323E" transform="translate(80,79)"/>
<path d="M0 0 C1 4 1 4 1 4 Z " fill="#7D4393" transform="translate(169,75)"/>
<path d="M0 0 C4 1 4 1 4 1 Z " fill="#EF7A19" transform="translate(223,54)"/>
<path d="M0 0 C1 4 1 4 1 4 Z " fill="#E74E24" transform="translate(159,49)"/>
<path d="M0 0 C1 4 1 4 1 4 Z " fill="#E5332B" transform="translate(59,41)"/>
<path d="M0 0 C4 1 4 1 4 1 Z " fill="#EB661E" transform="translate(135,34)"/>
<path d="M0 0 C4 1 4 1 4 1 Z " fill="#EC6E1C" transform="translate(229,33)"/>
<path d="M0 0 C4 1 4 1 4 1 Z " fill="#F39314" transform="translate(99,33)"/>
<path d="M0 0 C3 1 3 1 3 1 Z " fill="#A93B89" transform="translate(226,158)"/>
<path d="M0 0 C3 1 3 1 3 1 Z " fill="#844291" transform="translate(192,158)"/>
<path d="M0 0 C3 1 3 1 3 1 Z " fill="#E7307C" transform="translate(134,158)"/>
<path d="M0 0 C3 1 3 1 3 1 Z " fill="#AC3B89" transform="translate(229,157)"/>
<path d="M0 0 C3 1 3 1 3 1 Z " fill="#804392" transform="translate(188,157)"/>
<path d="M0 0 C3 1 3 1 3 1 Z " fill="#B33A87" transform="translate(138,157)"/>
<path d="M0 0 C3 1 3 1 3 1 Z " fill="#E7307C" transform="translate(95,157)"/>
<path d="M0 0 C0.99 0.495 0.99 0.495 2 1 C1.01 1.495 1.01 1.495 0 2 C0 1.34 0 0.68 0 0 Z " fill="#AE3B84" transform="translate(69,141)"/>
<path d="M0 0 C3 1 3 1 3 1 Z " fill="#943F8E" transform="translate(197,137)"/>
<path d="" fill="#E7316B" transform="translate(0,0)"/>
<path d="" fill="#BA3786" transform="translate(0,0)"/>
<path d="" fill="#CE3575" transform="translate(0,0)"/>
<path d="" fill="#C33684" transform="translate(0,0)"/>
<path d="" fill="#CA356B" transform="translate(0,0)"/>
<path d="" fill="#E6315A" transform="translate(0,0)"/>
<path d="" fill="#E6315A" transform="translate(0,0)"/>
<path d="" fill="#884191" transform="translate(0,0)"/>
<path d="" fill="#864291" transform="translate(0,0)"/>
<path d="" fill="#8C4190" transform="translate(0,0)"/>
<path d="" fill="#8A4190" transform="translate(0,0)"/>
<path d="" fill="#E6323B" transform="translate(0,0)"/>
<path d="" fill="#FCC808" transform="translate(0,0)"/>
<path d="" fill="#7A4494" transform="translate(0,0)"/>
<path d="" fill="#784494" transform="translate(0,0)"/>
<path d="" fill="#764594" transform="translate(0,0)"/>
<path d="" fill="#744494" transform="translate(0,0)"/>
<path d="M0 0 C3 1 3 1 3 1 Z " fill="#E95C20" transform="translate(144,61)"/>
<path d="M0 0 C3 1 3 1 3 1 Z " fill="#EB651E" transform="translate(234,57)"/>
<path d="M0 0 C3 1 3 1 3 1 Z " fill="#ED731B" transform="translate(227,55)"/>
<path d="M0 0 C3 1 3 1 3 1 Z " fill="#EA5720" transform="translate(130,55)"/>
<path d="" fill="#E74F23" transform="translate(0,0)"/>
<path d="M0 0 C0.66 0 1.32 0 2 0 C1.67 0.66 1.34 1.32 1 2 C0.67 1.34 0.34 0.68 0 0 Z " fill="#E95522" transform="translate(243,39)"/>
<path d="M0 0 C3 1 3 1 3 1 Z " fill="#EA631F" transform="translate(139,35)"/>
<path d="M0 0 C3 1 3 1 3 1 Z " fill="#F59C12" transform="translate(93,35)"/>
<path d="M0 0 C3 1 3 1 3 1 Z " fill="#EB641E" transform="translate(234,34)"/>
<path d="M0 0 C3 1 3 1 3 1 Z " fill="#F9B10D" transform="translate(197,34)"/>
<path d="M0 0 C3 1 3 1 3 1 Z " fill="#F49813" transform="translate(96,34)"/>
<path d="M0 0 C0.66 0 1.32 0 2 0 C1.67 0.66 1.34 1.32 1 2 C0.67 1.34 0.34 0.68 0 0 Z " fill="#E43327" transform="translate(54,34)"/>
<path d="M0 0 C3 1 3 1 3 1 Z " fill="#F8AB0E" transform="translate(200,33)"/>
<path d="M0 0 C3 1 3 1 3 1 Z " fill="#E53326" transform="translate(50,32)"/>
<path d="M0 0 C2 1 2 1 2 1 Z " fill="#A23D8A" transform="translate(49,158)"/>
<path d="M0 0 C2 1 2 1 2 1 Z " fill="#E7307A" transform="translate(22,158)"/>
<path d="M0 0 C2 1 2 1 2 1 Z " fill="#7E4393" transform="translate(186,156)"/>
<path d="M0 0 C2 1 2 1 2 1 Z " fill="#B03A88" transform="translate(144,155)"/>
<path d="" fill="#784594" transform="translate(0,0)"/>
<path d="" fill="#E6307C" transform="translate(0,0)"/>
<path d="" fill="#993E8D" transform="translate(0,0)"/>
<path d="" fill="#E73074" transform="translate(0,0)"/>
<path d="" fill="#E73073" transform="translate(0,0)"/>
<path d="" fill="#E7307C" transform="translate(0,0)"/>
<path d="" fill="#E73071" transform="translate(0,0)"/>
<path d="" fill="#E7307C" transform="translate(0,0)"/>
<path d="" fill="#E7306F" transform="translate(0,0)"/>
<path d="" fill="#E7307B" transform="translate(0,0)"/>
<path d="" fill="#804392" transform="translate(0,0)"/>
<path d="" fill="#E7306D" transform="translate(0,0)"/>
<path d="M0 0 C2 1 2 1 2 1 Z " fill="#8D418F" transform="translate(189,134)"/>
<path d="M0 0 C2 1 2 1 2 1 Z " fill="#C13784" transform="translate(95,133)"/>
<path d="" fill="#983F8D" transform="translate(0,0)"/>
<path d="M0 0 C2 1 2 1 2 1 Z " fill="#A13D8B" transform="translate(45,132)"/>
<path d="" fill="#B83985" transform="translate(0,0)"/>
<path d="" fill="#953F8E" transform="translate(0,0)"/>
<path d="" fill="#93408E" transform="translate(0,0)"/>
<path d="" fill="#E53166" transform="translate(0,0)"/>
<path d="" fill="#8F408E" transform="translate(0,0)"/>
<path d="" fill="#91408F" transform="translate(0,0)"/>
<path d="" fill="#E63161" transform="translate(0,0)"/>
<path d="" fill="#8B4190" transform="translate(0,0)"/>
<path d="" fill="#9B3E8D" transform="translate(0,0)"/>
<path d="" fill="#884291" transform="translate(0,0)"/>
<path d="" fill="#8F3F8F" transform="translate(0,0)"/>
<path d="" fill="#983F8D" transform="translate(0,0)"/>
<path d="" fill="#E6315E" transform="translate(0,0)"/>
<path d="" fill="#8D418F" transform="translate(0,0)"/>
<path d="" fill="#963F8E" transform="translate(0,0)"/>
<path d="" fill="#E6315C" transform="translate(0,0)"/>
<path d="" fill="#C43684" transform="translate(0,0)"/>
<path d="" fill="#8C4190" transform="translate(0,0)"/>
<path d="" fill="#C63681" transform="translate(0,0)"/>
<path d="" fill="#8A4190" transform="translate(0,0)"/>
<path d="" fill="#943F8E" transform="translate(0,0)"/>
<path d="" fill="#E73169" transform="translate(0,0)"/>
<path d="" fill="#92408E" transform="translate(0,0)"/>
<path d="" fill="#E73167" transform="translate(0,0)"/>
<path d="" fill="#91408F" transform="translate(0,0)"/>
<path d="" fill="#E53165" transform="translate(0,0)"/>
<path d="" fill="#E63163" transform="translate(0,0)"/>
<path d="" fill="#8F408F" transform="translate(0,0)"/>
<path d="" fill="#E63161" transform="translate(0,0)"/>
<path d="" fill="#9F3D74" transform="translate(0,0)"/>
<path d="" fill="#E53239" transform="translate(0,0)"/>
<path d="" fill="#FDC808" transform="translate(0,0)"/>
<path d="" fill="#E53238" transform="translate(0,0)"/>
<path d="" fill="#E53236" transform="translate(0,0)"/>
<path d="" fill="#FDC608" transform="translate(0,0)"/>
<path d="" fill="#F7A70E" transform="translate(0,0)"/>
<path d="" fill="#FDC509" transform="translate(0,0)"/>
<path d="" fill="#E53234" transform="translate(0,0)"/>
<path d="" fill="#FCC209" transform="translate(0,0)"/>
<path d="" fill="#FCC209" transform="translate(0,0)"/>
<path d="" fill="#FCC109" transform="translate(0,0)"/>
<path d="" fill="#FCBF0A" transform="translate(0,0)"/>
<path d="" fill="#734595" transform="translate(0,0)"/>
<path d="" fill="#714696" transform="translate(0,0)"/>
<path d="M0 0 C2 1 2 1 2 1 Z " fill="#E5332A" transform="translate(96,58)"/>
<path d="M0 0 C2 1 2 1 2 1 Z " fill="#E95921" transform="translate(240,57)"/>
<path d="M0 0 C2 1 2 1 2 1 Z " fill="#EC6C1D" transform="translate(231,56)"/>
<path d="" fill="#E75123" transform="translate(0,0)"/>
<path d="" fill="#6C4797" transform="translate(0,0)"/>
<path d="M0 0 C2 1 2 1 2 1 Z " fill="#E53330" transform="translate(52,52)"/>
<path d="" fill="#6B4797" transform="translate(0,0)"/>
<path d="" fill="#E74F24" transform="translate(0,0)"/>
<path d="" fill="#E5332E" transform="translate(0,0)"/>
<path d="" fill="#E75222" transform="translate(0,0)"/>
<path d="" fill="#E53328" transform="translate(0,0)"/>
<path d="M0 0 C2 1 2 1 2 1 Z " fill="#F7A310" transform="translate(87,38)"/>
<path d="M0 0 C2 1 2 1 2 1 Z " fill="#EA5F20" transform="translate(237,35)"/>
<path d="M0 0 C2 1 2 1 2 1 Z " fill="#F08118" transform="translate(115,31)"/>
<path d="" fill="#FBCC07" transform="translate(0,0)"/>
<path d="" fill="#A73C8A" transform="translate(0,0)"/>
<path d="" fill="#DC327E" transform="translate(0,0)"/>
<path d="" fill="#784594" transform="translate(0,0)"/>
<path d="" fill="#A13D8B" transform="translate(0,0)"/>
<path d="" fill="#E7307C" transform="translate(0,0)"/>
<path d="" fill="#784594" transform="translate(0,0)"/>
<path d="" fill="#9F3E8C" transform="translate(0,0)"/>
<path d="" fill="#E73076" transform="translate(0,0)"/>
<path d="" fill="#E7307C" transform="translate(0,0)"/>
<path d="" fill="#784594" transform="translate(0,0)"/>
<path d="" fill="#9E3D8C" transform="translate(0,0)"/>
<path d="" fill="#E73075" transform="translate(0,0)"/>
<path d="" fill="#E7307C" transform="translate(0,0)"/>
<path d="" fill="#A63C8A" transform="translate(0,0)"/>
<path d="" fill="#E73074" transform="translate(0,0)"/>
<path d="" fill="#9C3E8D" transform="translate(0,0)"/>
<path d="" fill="#E73075" transform="translate(0,0)"/>
<path d="" fill="#E7307C" transform="translate(0,0)"/>
<path d="" fill="#E73072" transform="translate(0,0)"/>
<path d="" fill="#973F8D" transform="translate(0,0)"/>
<path d="" fill="#E73074" transform="translate(0,0)"/>
<path d="" fill="#E7307C" transform="translate(0,0)"/>
<path d="" fill="#A33D8B" transform="translate(0,0)"/>
<path d="" fill="#E73072" transform="translate(0,0)"/>
<path d="" fill="#963F8E" transform="translate(0,0)"/>
<path d="" fill="#A23D8B" transform="translate(0,0)"/>
<path d="" fill="#E73071" transform="translate(0,0)"/>
<path d="" fill="#943F8E" transform="translate(0,0)"/>
<path d="" fill="#A13D8C" transform="translate(0,0)"/>
<path d="" fill="#E73070" transform="translate(0,0)"/>
<path d="" fill="#A03D8C" transform="translate(0,0)"/>
<path d="" fill="#9F3E8B" transform="translate(0,0)"/>
<path d="" fill="#7E4493" transform="translate(0,0)"/>
<path d="" fill="#9E3D8C" transform="translate(0,0)"/>
<path d="" fill="#9D3E8C" transform="translate(0,0)"/>
<path d="" fill="#824392" transform="translate(0,0)"/>
<path d="" fill="#993E8D" transform="translate(0,0)"/>
<path d="" fill="#B73986" transform="translate(0,0)"/>
<path d="" fill="#993E8D" transform="translate(0,0)"/>
<path d="" fill="#C23784" transform="translate(0,0)"/>
<path d="" fill="#B73987" transform="translate(0,0)"/>
<path d="" fill="#9E3D8C" transform="translate(0,0)"/>
<path d="" fill="#B73987" transform="translate(0,0)"/>
<path d="" fill="#973F8D" transform="translate(0,0)"/>
<path d="" fill="#A53C8A" transform="translate(0,0)"/>
<path d="" fill="#DC3370" transform="translate(0,0)"/>
<path d="" fill="#E2326A" transform="translate(0,0)"/>
<path d="" fill="#943F8E" transform="translate(0,0)"/>
<path d="" fill="#A13D8B" transform="translate(0,0)"/>
<path d="" fill="#E33269" transform="translate(0,0)"/>
<path d="" fill="#94408E" transform="translate(0,0)"/>
<path d="" fill="#A03D8C" transform="translate(0,0)"/>
<path d="" fill="#92408F" transform="translate(0,0)"/>
<path d="" fill="#9F3E8C" transform="translate(0,0)"/>
<path d="" fill="#9E3E8C" transform="translate(0,0)"/>
<path d="" fill="#E63163" transform="translate(0,0)"/>
<path d="" fill="#9D3E8C" transform="translate(0,0)"/>
<path d="" fill="#90408F" transform="translate(0,0)"/>
<path d="" fill="#E63160" transform="translate(0,0)"/>
<path d="" fill="#9A3E8D" transform="translate(0,0)"/>
<path d="" fill="#963F8E" transform="translate(0,0)"/>
<path d="" fill="#CB357C" transform="translate(0,0)"/>
<path d="" fill="#D43471" transform="translate(0,0)"/>
<path d="" fill="#DF3362" transform="translate(0,0)"/>
<path d="" fill="#E63163" transform="translate(0,0)"/>
<path d="" fill="#E63161" transform="translate(0,0)"/>
<path d="" fill="#E6324C" transform="translate(0,0)"/>
<path d="" fill="#E6315F" transform="translate(0,0)"/>
<path d="" fill="#E6315D" transform="translate(0,0)"/>
<path d="" fill="#E6315D" transform="translate(0,0)"/>
<path d="" fill="#E6315C" transform="translate(0,0)"/>
<path d="" fill="#E6325A" transform="translate(0,0)"/>
<path d="" fill="#E63246" transform="translate(0,0)"/>
<path d="" fill="#E63159" transform="translate(0,0)"/>
<path d="" fill="#E63158" transform="translate(0,0)"/>
<path d="" fill="#E63157" transform="translate(0,0)"/>
<path d="" fill="#E63242" transform="translate(0,0)"/>
<path d="" fill="#E63156" transform="translate(0,0)"/>
<path d="" fill="#E63156" transform="translate(0,0)"/>
<path d="" fill="#E6323D" transform="translate(0,0)"/>
<path d="" fill="#E63151" transform="translate(0,0)"/>
<path d="" fill="#E6323C" transform="translate(0,0)"/>
<path d="" fill="#E6324D" transform="translate(0,0)"/>
<path d="" fill="#F7A510" transform="translate(0,0)"/>
<path d="" fill="#E53235" transform="translate(0,0)"/>
<path d="" fill="#E53332" transform="translate(0,0)"/>
<path d="" fill="#E53331" transform="translate(0,0)"/>
<path d="" fill="#E53330" transform="translate(0,0)"/>
<path d="" fill="#E5332F" transform="translate(0,0)"/>
<path d="" fill="#E95921" transform="translate(0,0)"/>
<path d="" fill="#E5332E" transform="translate(0,0)"/>
<path d="" fill="#E5332D" transform="translate(0,0)"/>
<path d="" fill="#E85223" transform="translate(0,0)"/>
<path d="" fill="#FCBF0A" transform="translate(0,0)"/>
<path d="" fill="#E85223" transform="translate(0,0)"/>
<path d="" fill="#FABE0A" transform="translate(0,0)"/>
<path d="" fill="#F7A70F" transform="translate(0,0)"/>
<path d="" fill="#E85223" transform="translate(0,0)"/>
<path d="" fill="#F7A411" transform="translate(0,0)"/>
<path d="" fill="#E75123" transform="translate(0,0)"/>
<path d="" fill="#E85323" transform="translate(0,0)"/>
<path d="" fill="#F7A111" transform="translate(0,0)"/>
<path d="" fill="#704696" transform="translate(0,0)"/>
<path d="" fill="#FBBC0B" transform="translate(0,0)"/>
<path d="" fill="#E85423" transform="translate(0,0)"/>
<path d="" fill="#FBBB0B" transform="translate(0,0)"/>
<path d="" fill="#E85323" transform="translate(0,0)"/>
<path d="" fill="#6E4696" transform="translate(0,0)"/>
<path d="" fill="#FBBA0B" transform="translate(0,0)"/>
<path d="" fill="#FAB90C" transform="translate(0,0)"/>
<path d="" fill="#FAB80C" transform="translate(0,0)"/>
<path d="" fill="#E53330" transform="translate(0,0)"/>
<path d="" fill="#6C4797" transform="translate(0,0)"/>
<path d="" fill="#FAB60C" transform="translate(0,0)"/>
<path d="" fill="#E5332F" transform="translate(0,0)"/>
<path d="" fill="#FAB50D" transform="translate(0,0)"/>
<path d="" fill="#E5332F" transform="translate(0,0)"/>
<path d="" fill="#F9B50C" transform="translate(0,0)"/>
<path d="" fill="#E5332F" transform="translate(0,0)"/>
<path d="" fill="#6B4797" transform="translate(0,0)"/>
<path d="" fill="#FAB30C" transform="translate(0,0)"/>
<path d="" fill="#6B4797" transform="translate(0,0)"/>
<path d="" fill="#F9B20D" transform="translate(0,0)"/>
<path d="" fill="#6B4797" transform="translate(0,0)"/>
<path d="" fill="#E75123" transform="translate(0,0)"/>
<path d="" fill="#6C4797" transform="translate(0,0)"/>
<path d="" fill="#E75123" transform="translate(0,0)"/>
<path d="" fill="#67439B" transform="translate(0,0)"/>
<path d="" fill="#E75223" transform="translate(0,0)"/>
<path d="" fill="#F9AE0E" transform="translate(0,0)"/>
<path d="" fill="#E85323" transform="translate(0,0)"/>
<path d="" fill="#6240A0" transform="translate(0,0)"/>
<path d="" fill="#E75422" transform="translate(0,0)"/>
<path d="" fill="#ECBA17" transform="translate(0,0)"/>
<path d="" fill="#E95822" transform="translate(0,0)"/>
<path d="" fill="#F4B911" transform="translate(0,0)"/>
<path d="" fill="#F6A211" transform="translate(0,0)"/>
<path d="" fill="#E53328" transform="translate(0,0)"/>
<path d="" fill="#E53327" transform="translate(0,0)"/>
<path d="" fill="#E53326" transform="translate(0,0)"/>
<path d="" fill="#F9B20C" transform="translate(0,0)"/>
<path d="" fill="#FDC609" transform="translate(0,0)"/>
<path d="" fill="#FAB30C" transform="translate(0,0)"/>
<path d="" fill="#FCBE0A" transform="translate(0,0)"/>
<path d="" fill="#F8B10D" transform="translate(0,0)"/>
<path d="" fill="#FCBF0A" transform="translate(0,0)"/>
</svg>
